<svg version="1.1" width="40px" height="40px"  viewBox="0.0 0.0 960.0 960.0" fill="none" stroke="none" stroke-linecap="square" stroke-miterlimit="10" xmlns:xlink="http://www.w3.org/1999/xlink" xmlns="http://www.w3.org/2000/svg"><clipPath id="p.0"><path d="m0 0l960.0 0l0 960.0l-960.0 0l0 -960.0z" clip-rule="nonzero"/></clipPath><g clip-path="url(#p.0)"><path fill="#000000" fill-opacity="0.0" d="m0 0l960.0 0l0 960.0l-960.0 0z" fill-rule="evenodd"/><path fill="#5445ff" d="m59.62242 475.38583l0 0c0 -232.16833 188.20963 -420.37796 420.37793 -420.37796l0 0c111.49115 0 218.41595 44.289696 297.25214 123.125854c78.83612 78.83615 123.12579 185.76093 123.12579 297.2521l0 0c0 232.1683 -188.2096 420.37796 -420.37793 420.37796l0 0c-232.16832 0 -420.37793 -188.20966 -420.37793 -420.37796z" fill-rule="evenodd"/><path fill="#ffffff" d="m449.9924 720.54205l181.9545 -391.85614l-62.88336 -29.203857l151.28961 -83.10449l34.127686 169.21472l-62.88336 -29.203827l-181.95447 391.8561z" fill-rule="evenodd"/><path fill="#ffffff" d="m253.37933 363.36566l60.125977 -28.157501l180.09448 385.76376l-60.125977 28.157532z" fill-rule="evenodd"/><path fill="#ffffff" d="m393.53198 730.90173l0 0c0 -42.15631 34.174408 -76.33075 76.33072 -76.33075l0 0c20.24414 0 39.65918 8.041992 53.97397 22.35675c14.314758 14.314819 22.35675 33.729797 22.35675 53.974l0 0c0 42.15625 -34.17444 76.33069 -76.33072 76.33069l0 0c-42.15631 0 -76.33072 -34.17444 -76.33072 -76.33069z" fill-rule="evenodd"/><path fill="#ffffff" d="m203.3073 345.4823l0 0c0 -42.15628 34.174423 -76.33072 76.3307 -76.33072l0 0c20.244171 0 39.65918 8.041962 53.97397 22.35675c14.314789 14.314789 22.35675 33.729797 22.35675 53.97397l0 0c0 42.15628 -34.17444 76.33072 -76.33072 76.33072l0 0c-42.15628 0 -76.3307 -34.17444 -76.3307 -76.33072z" fill-rule="evenodd"/></g></svg>